<?xml version="1.0" encoding="utf-8"?>
<!-- Generator: Adobe Illustrator 24.3.0, SVG Export Plug-In . SVG Version: 6.00 Build 0)  -->
<svg version="1.1" id="Layer_1" xmlns="http://www.w3.org/2000/svg" xmlns:xlink="http://www.w3.org/1999/xlink" x="0px" y="0px"
	 viewBox="0 0 149 48" style="enable-background:new 0 0 149 48;" xml:space="preserve">
<style type="text/css">
	.st0{display:none;}
	.st1{display:inline;}
</style>
<g id="FLUIDITY---MAIN" class="st0">
	<g id="IP---FULL-NEW" transform="translate(-383.000000, -6653.000000)" class="st1">
		<g id="MENU-BAR-ON-WHITE" transform="translate(-3.000000, 6626.000000)">
			
				<image style="overflow:visible;enable-background:new    ;" width="1556" height="492" id="Artboard-2-copy-2_x40_4x" xlink:href="4C0D1E080A3B806F.png"  transform="matrix(9.547713e-02 0 0 9.547713e-02 386.2289 27.5126)">
			</image>
		</g>
	</g>
</g>
<path d="M37.9,22.3V9.8h2.7v12.6H37.9z"/>
<path d="M52.7,9.8h2.7v12.6h-3.9l-5.5-9h-0.3v9h-2.7V9.8h3.7l0,0h0.2l5.5,9h0.3L52.7,9.8z"/>
<path d="M57,9.8h12.2v2.5h-4.7v10.1h-2.7V12.3H57V9.8z"/>
<path d="M81.2,9.8v2.5h-7.6v2.6h7.6v2.5h-7.6v2.6h7.6v2.5H70.9V9.8H81.2z"/>
<path d="M92.4,17.5l2.4,4.8h-3l-2-4.2c-0.3,0-0.5,0-0.7,0h-2.9v4.2h-2.7V9.8h2.7l0,0h3.4c1.5,0,4.9,0,4.9,4.2
	C94.5,16.2,93.6,17,92.4,17.5z M92,14c0-1.8-1.6-1.8-2.5-1.8h-3.2v3.5h3.2C90.2,15.7,92,15.7,92,14z"/>
<path d="M48.9,32.5c0,4.7-4.2,4.5-5.4,4.5h-2.9v3.5h-2.7V27.9h2.7l0,0h2.9C45,28,48.9,28,48.9,32.5z M46.3,32.5
	c0-2.2-1.8-2.2-2.7-2.2h-3.1v4.3h3C44.3,34.6,46.3,34.7,46.3,32.5L46.3,32.5z"/>
<path d="M59.6,35.7l2.4,4.8h-3l-2-4.2c-0.3,0-0.5,0-0.7,0h-2.9v4.2h-2.7V27.9h2.7l0,0h3.4c1.5,0,4.9,0,4.9,4.2
	C61.7,34.3,60.7,35.1,59.6,35.7z M59.1,32.1c0-1.8-1.6-1.8-2.5-1.8h-3.2v3.5h3.2C57.4,33.9,59.1,33.9,59.1,32.1L59.1,32.1z"/>
<path d="M76.3,34.1c0,4.1-2.8,6.4-6.4,6.4s-6.4-2.2-6.4-6.4c0-4.1,2.8-6.4,6.4-6.4S76.3,30,76.3,34.1z M73.7,34.1
	c0-2.4-1.6-3.6-3.8-3.6s-3.8,1.1-3.8,3.6c0,2.5,1.6,3.6,3.8,3.6S73.7,36.5,73.7,34.1L73.7,34.1z"/>
<path d="M77.6,28h12.2v2.5h-4.7v10.1h-2.7V30.4h-4.7L77.6,28L77.6,28z"/>
<path d="M103.9,34.1c0,4.1-2.8,6.4-6.4,6.4S91,38.3,91,34.1c0-4.1,2.8-6.4,6.4-6.4S103.9,30,103.9,34.1z M101.3,34.1
	c0-2.4-1.6-3.6-3.8-3.6c-2.2,0-3.8,1.1-3.8,3.6c0,2.5,1.6,3.6,3.8,3.6C99.6,37.7,101.3,36.5,101.3,34.1L101.3,34.1z"/>
<path d="M115.3,35.7h2.9c-0.2,2.8-2.7,4.8-6.2,4.8c-3.6,0-6.4-2.2-6.4-6.4c0-4.1,2.7-6.4,6.4-6.4c3.5,0,6,2.1,6.2,4.8h-2.8
	c-0.4-1.3-1.3-2-3.4-2c-2.1,0-3.6,1.1-3.6,3.6c0,2.5,1.5,3.6,3.6,3.6S114.9,37,115.3,35.7L115.3,35.7z"/>
<path d="M132.6,34.1c0,4.1-2.8,6.4-6.4,6.4s-6.4-2.2-6.4-6.4c0-4.1,2.8-6.4,6.4-6.4S132.6,30,132.6,34.1z M129.9,34.1
	c0-2.4-1.6-3.6-3.8-3.6s-3.8,1.1-3.8,3.6c0,2.5,1.6,3.6,3.8,3.6S129.9,36.5,129.9,34.1L129.9,34.1z"/>
<path d="M137.3,38h7.6v2.5h-10.3V28h2.7V38z"/>
<path d="M143.4,28.1h2.1v0.4h-0.8v1.8h-0.5v-1.8h-0.8L143.4,28.1z"/>
<path d="M148.5,28.1v2.2H148v-1.6h0l-0.4,1.6h-0.7l-0.4-1.6h0v1.6h-0.5v-2.2h0.8l0.4,1.7h0l0.4-1.7H148.5L148.5,28.1z"/>
<path d="M24.8,24.4c-0.2-0.8-1.1-1.3-1.9-1.1c-0.2,0.1-0.5,0.2-0.6,0.3l0,0c-0.4,0.4-0.6,1-0.4,1.6c0.2,0.8,0.4,1.7,0.3,2.6v6.8
	c0,4.9-3.6,9.2-8.5,9.7C8.5,44.8,3.9,41,3.4,35.8c0-0.3,0-0.6,0-0.9V28c0-4.7,3.2-8.7,7.8-9.5c1.8-0.3,3.5-0.1,5.2,0.6
	c0.5,0.2,1.1,0.1,1.6-0.3l0,0c0.6-0.6,0.7-1.5,0.2-2.1c-0.2-0.2-0.3-0.3-0.6-0.4c-2-0.8-4.3-1.1-6.4-0.8C4.8,16.3,0.2,21.8,0.2,28.1
	v6.5c0,7,5.7,13,12.7,12.9c6.8-0.1,12.3-5.7,12.3-12.5v-7.2C25.3,26.7,25.1,25.5,24.8,24.4z M3.2,17.2L3.2,17.2
	c0.5-0.4,0.6-1,0.5-1.6c-0.4-1.3-0.5-2.7-0.2-4.1c0.8-5.2,5.7-8.6,10.9-7.8s8.6,5.7,7.8,10.9c-0.7,4.2-4.1,7.4-8.3,7.9
	c-1.6,0.2-3.2,0-4.6-0.6c-0.5-0.2-1.1-0.1-1.6,0.3h0c-0.6,0.6-0.7,1.5-0.2,2.1c0.2,0.2,0.3,0.3,0.6,0.4c2.2,0.9,4.6,1.2,6.9,0.8
	c6.8-1.2,11.4-7.7,10.2-14.5S17.4-0.5,10.6,0.7C3.8,1.9-0.8,8.4,0.5,15.2c0.1,0.4,0.2,0.9,0.3,1.3c0.2,0.8,1.1,1.3,1.9,1
	C2.9,17.5,3.1,17.3,3.2,17.2z"/>
</svg>
